<svg fill="none" height="509" viewBox="0 0 542 509" width="542" xmlns="http://www.w3.org/2000/svg" xmlns:xlink="http://www.w3.org/1999/xlink"><linearGradient id="a"><stop offset="0" stop-color="#f0562c"/><stop offset="1" stop-color="#fcb540"/></linearGradient><linearGradient id="b" gradientUnits="userSpaceOnUse" x1="111.76" x2="21.9983" xlink:href="#a" y1="222.003" y2="198.731"/><linearGradient id="c" gradientUnits="userSpaceOnUse" x1="187.255" x2="152.265" xlink:href="#a" y1="210.094" y2="201.022"/><linearGradient id="d" gradientUnits="userSpaceOnUse" x1="155.35" x2="64.3776" xlink:href="#a" y1="189.126" y2="165.54"/><linearGradient id="e" gradientUnits="userSpaceOnUse" x1="101.111" x2="34.4751" xlink:href="#a" y1="263.074" y2="245.797"/><linearGradient id="f" gradientUnits="userSpaceOnUse" x1="171.164" x2="90.6921" xlink:href="#a" y1="272.159" y2="251.295"/><linearGradient id="g" gradientUnits="userSpaceOnUse" x1="171.166" x2="90.6939" xlink:href="#a" y1="272.152" y2="251.288"/><linearGradient id="h" gradientUnits="userSpaceOnUse" x1="134.691" x2="27.2827" xlink:href="#a" y1="206.197" y2="178.349"/><linearGradient id="i" gradientUnits="userSpaceOnUse" x1="182.602" x2="79.6013" xlink:href="#a" y1="228.042" y2="201.338"/><linearGradient id="j" gradientUnits="userSpaceOnUse" x1="187.255" x2="137.055" xlink:href="#a" y1="210.094" y2="197.079"/><linearGradient id="k" gradientUnits="userSpaceOnUse" x1="195.704" x2="109.756" xlink:href="#a" y1="418.424" y2="462.89"/><linearGradient id="l" gradientUnits="userSpaceOnUse" x1="167.627" x2="81.6782" xlink:href="#a" y1="364.151" y2="408.617"/><linearGradient id="m" gradientUnits="userSpaceOnUse" x1="335.019" x2="144.11" xlink:href="#a" y1="277.55" y2="376.318"/><linearGradient id="n" gradientUnits="userSpaceOnUse" x1="346.819" x2="176.274" xlink:href="#a" y1="307.015" y2="395.247"/><linearGradient id="o" gradientUnits="userSpaceOnUse" x1="416.542" x2="335.562" xlink:href="#a" y1="243.36" y2="285.256"/><linearGradient id="p" gradientUnits="userSpaceOnUse" x1="427.799" x2="254.074" xlink:href="#a" y1="265.119" y2="354.997"/><linearGradient id="q" gradientUnits="userSpaceOnUse" x1="399.053" x2="382.316" xlink:href="#a" y1="72.7183" y2="17.0404"/><linearGradient id="r" gradientUnits="userSpaceOnUse" x1="397.042" x2="380.787" xlink:href="#a" y1="93.633" y2="39.5555"/><linearGradient id="s" gradientUnits="userSpaceOnUse" x1="404.472" x2="393.213" xlink:href="#a" y1="102.32" y2="64.8644"/><linearGradient id="t" gradientUnits="userSpaceOnUse" x1="429.17" x2="402.259" xlink:href="#a" y1="164.994" y2="75.4669"/><linearGradient id="u" gradientUnits="userSpaceOnUse" x1="407.643" x2="390.905" xlink:href="#a" y1="74.2877" y2="18.6062"/><linearGradient id="v" gradientUnits="userSpaceOnUse" x1="402.163" x2="376.455" xlink:href="#a" y1="104.325" y2="18.8019"/><linearGradient id="w" gradientUnits="userSpaceOnUse" x1="359.746" x2="350.775" xlink:href="#a" y1="117.075" y2="87.2305"/><linearGradient id="x" gradientUnits="userSpaceOnUse" x1="320.942" x2="297.368" xlink:href="#a" y1="200.709" y2="122.284"/><linearGradient id="y" gradientUnits="userSpaceOnUse" x1="395.975" x2="369.933" xlink:href="#a" y1="178.155" y2="91.5196"/><linearGradient id="z" gradientUnits="userSpaceOnUse" x1="257.861" x2="257.861" y1="102.992" y2="301.225"><stop offset="0" stop-color="#061728"/><stop offset=".475142" stop-color="#164272"/><stop offset="1" stop-color="#002347"/></linearGradient><linearGradient id="A" gradientUnits="userSpaceOnUse" x1="94.9352" x2="282.617" y1="140.487" y2="640.973"><stop offset="0" stop-color="#3dd08f"/><stop offset=".48715" stop-color="#2d7b83"/><stop offset="1" stop-color="#125236"/></linearGradient><linearGradient id="B" gradientUnits="userSpaceOnUse" x1="330.741" x2="282.617" y1="101.989" y2="415.995"><stop offset="0" stop-color="#3cd08e"/><stop offset=".429012" stop-color="#2f7e89"/><stop offset="1" stop-color="#105134"/></linearGradient><linearGradient id="C"><stop offset="0" stop-color="#85e9ff"/><stop offset="1" stop-color="#3178c6"/></linearGradient><linearGradient id="D" gradientUnits="userSpaceOnUse" x1="58.3131" x2="137.942" xlink:href="#C" y1="6.20854" y2="76.6587"/><linearGradient id="E" gradientUnits="userSpaceOnUse" x1="131.74" x2="56.3255" xlink:href="#C" y1="91.5425" y2="16.1339"/><linearGradient id="F"><stop offset="0" stop-color="#ffea83"/><stop offset=".083" stop-color="#ffdd35"/><stop offset="1" stop-color="#ffa800"/></linearGradient><linearGradient id="G" gradientUnits="userSpaceOnUse" x1="423.478" x2="430.774" xlink:href="#F" y1="304.448" y2="324.913"/><linearGradient id="H" gradientUnits="userSpaceOnUse" x1="389.355" x2="426.819" xlink:href="#F" y1="313.683" y2="377.115"/><linearGradient id="I" gradientUnits="userSpaceOnUse" x1="459.41" x2="421.824" y1="405.467" y2="342.641"><stop offset="0" stop-color="#123d8e"/><stop offset=".90625" stop-color="#bd34fe"/></linearGradient><linearGradient id="J" gradientUnits="userSpaceOnUse" x1="325.426" x2="387.146" y1="338.523" y2="423.227"><stop offset="0" stop-color="#41d1ff"/><stop offset="1" stop-color="#bd34fe"/></linearGradient><linearGradient id="K"><stop offset="0" stop-color="#00dc82"/><stop offset="1" stop-color="#058163"/></linearGradient><linearGradient id="L" gradientUnits="userSpaceOnUse" x1="475.603" x2="445.859" xlink:href="#K" y1="159.361" y2="143.842"/><linearGradient id="M" gradientUnits="userSpaceOnUse" x1="493.424" x2="480.415" xlink:href="#K" y1="124.571" y2="119.437"/><linearGradient id="N" gradientUnits="userSpaceOnUse" x1="501.979" x2="458.013" xlink:href="#K" y1="178.632" y2="139.023"/><linearGradient id="O" gradientUnits="userSpaceOnUse" x1="535.931" x2="491.913" xlink:href="#K" y1="174.321" y2="150.924"/><linearGradient id="P" gradientUnits="userSpaceOnUse" x1="521.17" x2="464.14" y1="168.009" y2="116.967"><stop offset="0" stop-color="#00dc82"/><stop offset="1" stop-color="#2cffcc"/></linearGradient><path d="m22.0086 198.691 79.1124 64.347-66.6363-17.277z" fill="url(#b)"/><path d="m22.0086 198.691 79.1124 64.347-66.6363-17.277z" stroke="#fff" stroke-linecap="round" stroke-linejoin="round" stroke-width="2"/><path d="m171.177 272.108-18.897-71.146 18.934 14.657z" fill="url(#c)"/><path d="m171.177 272.108-18.897-71.146 18.934 14.657z" stroke="#fff" stroke-linecap="round" stroke-linejoin="round" stroke-width="2"/><path d="m58.9407 186.51 73.4743 28.466 19.866-14.013-25.217-19.201z" fill="url(#d)"/><path d="m58.9407 186.51 73.4743 28.466 19.866-14.013-25.217-19.201z" stroke="#fff" stroke-linecap="round" stroke-linejoin="round" stroke-width="2"/><path d="m78.872 296.881 22.249-33.843-66.6366-17.277z" fill="url(#e)"/><path d="m78.872 296.881 22.249-33.843-66.6366-17.277z" stroke="#fff" stroke-linecap="round" stroke-linejoin="round" stroke-width="2"/><path d="m109.846 312.059 61.332-39.951-92.305 24.773z" fill="url(#f)"/><path d="m109.846 312.059 61.332-39.951-92.305 24.773z" stroke="#fff" stroke-linecap="round" stroke-linejoin="round" stroke-width="2"/><path d="m101.122 263.038 70.056 9.07-92.305 24.773z" fill="url(#g)"/><path d="m101.122 263.038 70.056 9.07-92.305 24.773z" stroke="#fff" stroke-linecap="round" stroke-linejoin="round" stroke-width="2"/><path d="m22.0087 198.691 48.1287 39.148 62.2776-22.863-73.475-28.466z" fill="url(#h)"/><path d="m22.0087 198.691 48.1287 39.148 62.2776-22.863-73.475-28.466z" stroke="#fff" stroke-linecap="round" stroke-linejoin="round" stroke-width="2"/><path d="m171.177 272.108-38.762-57.132-62.2774 22.863 30.9834 25.199z" fill="url(#i)"/><path d="m171.177 272.108-38.762-57.132-62.2774 22.863 30.9834 25.199z" stroke="#fff" stroke-linecap="round" stroke-linejoin="round" stroke-width="2"/><path d="m152.28 200.962-19.865 14.014 38.762 57.132z" fill="url(#j)"/><path d="m152.28 200.962-19.865 14.014 38.762 57.132z" stroke="#fff" stroke-linecap="round" stroke-linejoin="round" stroke-width="2"/><path d="m109.737 462.854 42.147 10.879 57.118-15.223-9.807-33.338z" fill="url(#k)"/><path d="m109.737 462.854 42.147 10.879 57.118-15.223-9.807-33.338z" stroke="#fff" stroke-linecap="round" stroke-linejoin="round" stroke-width="2"/><path d="m144.078 376.259 55.118 48.912-89.458 37.682 14.7-56.933z" fill="url(#l)"/><path d="m144.078 376.259 55.118 48.912-89.458 37.682 14.7-56.933z" stroke="#fff" stroke-linecap="round" stroke-linejoin="round" stroke-width="2"/><path d="m338.265 283.824 8.519 23.121-147.587 118.226-55.118-48.912z" fill="url(#m)"/><path d="m338.265 283.824 8.519 23.121-147.587 118.226-55.118-48.912z" stroke="#fff" stroke-linecap="round" stroke-linejoin="round" stroke-width="2"/><path d="m209.003 458.51 82.016-32.102 55.764-119.462-147.587 118.226z" fill="url(#n)"/><path d="m209.003 458.51 82.016-32.102 55.764-119.462-147.587 118.226z" stroke="#fff" stroke-linecap="round" stroke-linejoin="round" stroke-width="2"/><path d="m430.574 270.482-26.577-10.335-65.732 23.677 8.519 23.121z" fill="url(#o)"/><path d="m430.574 270.482-26.577-10.335-65.732 23.677 8.519 23.121z" stroke="#fff" stroke-linecap="round" stroke-linejoin="round" stroke-width="2"/><path d="m422.787 303.752 7.787-33.27-83.79 36.464-55.765 119.462z" fill="url(#p)"/><path d="m422.787 303.752 7.787-33.27-83.79 36.464-55.765 119.462z" stroke="#fff" stroke-linecap="round" stroke-linejoin="round" stroke-width="2"/><path d="m376.557 18.7716 6.949 2.0585-2.674 18.712-30 47.6711z" fill="url(#q)"/><path d="m376.557 18.7716 6.949 2.0585-2.674 18.712-30 47.6711z" stroke="#fff" stroke-linecap="round" stroke-linejoin="round" stroke-width="2"/><path d="m347.394 98.2942 20.053 4.2348 20.994-36.2305-7.609-26.7566-30 47.6711z" fill="url(#r)"/><path d="m347.394 98.2942 20.053 4.2348 20.994-36.2305-7.609-26.7566-30 47.6711z" stroke="#fff" stroke-linecap="round" stroke-linejoin="round" stroke-width="2"/><path d="m375.866 110.919 21.053-33.8459-8.478-10.7743-20.994 36.2302z" fill="url(#s)"/><path d="m375.866 110.919 21.053-33.8459-8.478-10.7743-20.994 36.2302z" stroke="#fff" stroke-linecap="round" stroke-linejoin="round" stroke-width="2"/><path d="m402.447 75.8486-5.528 1.2236-21.053 33.8458-16.326 75.007 32.349-42.046z" fill="url(#t)"/><path d="m402.447 75.8486-5.528 1.2236-21.053 33.8458-16.326 75.007 32.349-42.046z" stroke="#fff" stroke-linecap="round" stroke-linejoin="round" stroke-width="2"/><path d="m383.506 20.8302 13.555 18.2004 5.386 36.8188-5.528 1.2236-8.478-10.7742-7.609-26.7566z" fill="url(#u)"/><path d="m383.506 20.8302 13.555 18.2004 5.386 36.8188-5.528 1.2236-8.478-10.7742-7.609-26.7566z" stroke="#fff" stroke-linecap="round" stroke-linejoin="round" stroke-width="2"/><path d="m376.557 18.7714-31.957 26.6377-51.217 78.0719 7.738 11.216 49.711-47.484z" fill="url(#v)"/><path d="m376.557 18.7714-31.957 26.6377-51.217 78.0719 7.738 11.216 49.711-47.484z" stroke="#fff" stroke-linecap="round" stroke-linejoin="round" stroke-width="2"/><path d="m347.394 98.2945-46.273 36.4025 49.711-47.4836z" fill="url(#w)"/><path d="m347.394 98.2945-46.273 36.4025 49.711-47.4836z" stroke="#fff" stroke-linecap="round" stroke-linejoin="round" stroke-width="2"/><path d="m293.383 123.482-1.381 39.726 8.33 43.696.789-72.206z" fill="url(#x)"/><path d="m293.383 123.482-1.381 39.726 8.33 43.696.789-72.206z" stroke="#fff" stroke-linecap="round" stroke-linejoin="round" stroke-width="2"/><path d="m347.394 98.2948 20.053 4.2352 8.419 8.389-16.326 75.007-59.208 20.978.789-72.206z" fill="url(#y)"/><path d="m347.394 98.2948 20.053 4.2352 8.419 8.389-16.326 75.007-59.208 20.978.789-72.206z" stroke="#fff" stroke-linecap="round" stroke-linejoin="round" stroke-width="2"/><path d="m271.894 180.488-66.331 23.366 21.776-76.563 66.331-23.366z" fill="#07192b"/><path d="m292.18 105.51-21.106 74.206-64.02 22.553 21.106-74.206z" stroke="#fff" stroke-opacity=".2" stroke-width="2"/><path d="m348.457 102.992-59.003 198.233-122.189-195.122 57.517-1.003 47.112 75.387 21.777-76.562z" fill="url(#z)"/><path d="m272.856 180.761 21.573-75.849 52.68-.897-57.983 194.803-120.075-191.746 55.182-.962 46.813 74.907 1.194 1.91z" stroke="#fff" stroke-opacity=".2" stroke-width="2"/><path d="m310.711 432.33-66.331 23.367-202.3807-325.227 66.3307-23.366z" fill="url(#A)"/><path d="m107.906 108.314 201.298 323.487-64.399 22.686-201.2985-323.488z" stroke="#fff" stroke-opacity=".2" stroke-width="2"/><path d="m406.872 101.989-96.161 330.342-202.381-325.226 58.935-1.003 122.189 195.122 59.003-198.233z" fill="url(#B)"/><path d="m290.412 301.51 58.794-197.531 56.327-.967-95.156 326.889-200.265-321.826 56.605-.963 121.889 194.643 1.175 1.876z" stroke="#fff" stroke-opacity=".2" stroke-width="2"/><path d="m119.595 1.00912c3.84-.203415 7.749 3.02142 8.737 7.20874l14.75 62.47244c.987 4.1873-1.32 7.7495-5.16 7.9579l-57.2583 3.0512c-3.84.2034-7.7545-3.0264-8.7418-7.2137l-14.7499-62.4725c-.9873-4.18728 1.3247-7.74948 5.1647-7.9529zm-12.761 44.29928-1.468-6.2264-24.876 1.3246 1.4686 6.2265 8.8807-.4714 6.5489 27.7386 7.0698-.3771-6.5489-27.7385zm28.443 21.5915c.358-1.3247.308-2.9321-.138-4.8323-.323-1.3743-.799-2.5699-1.419-3.587-.621-1.0121-1.38-1.9051-2.283-2.6741-.898-.769-1.925-1.4487-3.066-2.0292-1.146-.5904-2.406-1.1312-3.79-1.6372-1.007-.3622-1.92-.7145-2.739-1.0667-.818-.3473-1.528-.7144-2.128-1.0915-.605-.377-1.092-.7839-1.474-1.2155-.387-.4366-.64-.9426-.774-1.5082-.124-.521-.114-.9972.035-1.4338.149-.4317.412-.8087.794-1.1362.377-.3225.873-.5854 1.483-.7888.611-.2034 1.32-.3225 2.119-.3672.58-.0297 1.205-.0148 1.87.0497.665.0595 1.35.1686 2.049.3324.7.1587 1.394.377 2.084.6449.685.2679 1.34.5855 1.955.9576l-1.677-7.0947c-1.161-.3869-2.396-.6549-3.701-.7987-1.31-.1489-2.774-.1786-4.396-.0893s-3.17.3621-4.559.8285c-1.39.4664-2.545 1.1411-3.478 2.0242-.928.8831-1.568 1.9746-1.92 3.2844-.352 1.3048-.318 2.8428.099 4.614.536 2.2623 1.588 4.1625 3.16 5.6955 1.568 1.533 3.706 2.7882 6.4 3.7656 1.062.3771 2.054.7492 2.977 1.1163s1.737.7541 2.446 1.1659c.705.4118 1.295.8682 1.766 1.3743.472.5011.784 1.0865.943 1.7513.114.4862.109.9476-.005 1.3793-.119.4266-.362.8136-.729 1.146-.372.3324-.864.6003-1.484.8087s-1.369.3374-2.252.387c-1.508.0794-3.071-.129-4.684-.6301-1.612-.4961-3.19-1.2899-4.723-2.3765l1.791 7.5908c1.28.5755 2.729.9774 4.346 1.2106 1.618.2331 3.285.3075 4.996.2133 1.712-.0943 3.21-.3473 4.629-.7789 1.414-.4267 2.6-1.0717 3.543-1.93.942-.8583 1.592-1.9498 1.944-3.2794" fill="url(#D)"/><path d="m135.277 66.8999c.358-1.3247.308-2.9321-.138-4.8323-.323-1.3743-.799-2.57-1.419-3.587-.621-1.0121-1.38-1.9051-2.283-2.6741-.898-.769-1.925-1.4487-3.066-2.0292-1.146-.5904-2.406-1.1312-3.79-1.6372-1.007-.3622-1.92-.7145-2.739-1.0667-.818-.3473-1.528-.7144-2.128-1.0915-.605-.377-1.092-.7839-1.474-1.2155-.387-.4366-.64-.9426-.774-1.5082-.124-.521-.114-.9972.035-1.4338.149-.4317.412-.8087.794-1.1362.377-.3225.873-.5854 1.483-.7888.611-.2034 1.32-.3225 2.119-.3671.58-.0298 1.205-.0149 1.87.0496.665.0595 1.35.1686 2.049.3324.7.1587 1.394.377 2.084.6449.685.2679 1.34.5855 1.955.9576l-1.677-7.0947c-1.161-.3869-2.396-.6549-3.701-.7987-1.31-.1489-2.774-.1786-4.396-.0893s-3.17.3621-4.559.8285c-1.39.4664-2.545 1.1411-3.478 2.0242-.928.8831-1.568 1.9746-1.92 3.2844-.352 1.3048-.318 2.8428.099 4.614.536 2.2623 1.588 4.1625 3.16 5.6955 1.568 1.533 3.706 2.7882 6.4 3.7656 1.062.3771 2.054.7492 2.977 1.1163s1.737.7541 2.446 1.1659c.705.4118 1.295.8682 1.766 1.3743.472.5011.784 1.0865.943 1.7513.114.4862.109.9476-.005 1.3793-.119.4266-.362.8136-.729 1.146-.372.3324-.864.6003-1.484.8087s-1.369.3374-2.252.387c-1.508.0794-3.071-.129-4.684-.6301-1.612-.4961-3.19-1.2899-4.723-2.3765l1.791 7.5908c1.28.5755 2.729.9774 4.346 1.2106 1.618.2331 3.285.3076 4.996.2133 1.712-.0943 3.21-.3473 4.629-.7789 1.414-.4267 2.6-1.0717 3.543-1.93.942-.8583 1.592-1.9498 1.944-3.2794m-15.692-65.88578c3.84-.203415 7.749 3.02142 8.737 7.20874l14.75 62.47244c.987 4.1873-1.32 7.7495-5.16 7.9579l-57.2583 3.0512c-3.84.2034-7.7545-3.0264-8.7418-7.2137l-14.7499-62.4725c-.9873-4.18728 1.3247-7.74948 5.1647-7.9529zm-12.761 44.29928-1.468-6.2264-24.876 1.3246 1.4686 6.2265 8.8807-.4714 6.5489 27.7386 7.0698-.3771-6.5489-27.7385z" stroke="#fff" stroke-linejoin="round" stroke-opacity=".5"/><path d="m131.433 55.8015c.902.769 1.667 1.662 2.282 2.6741.625 1.0171 1.096 2.2128 1.419 3.587.446 1.9002.496 3.5126.139 4.8323-.353 1.3247-1.003 2.4162-1.945 3.2794-.943.8583-2.124 1.5033-3.543 1.93-1.419.4316-2.962.6896-4.629.7789-1.666.0893-3.378.0198-4.996-.2134-1.617-.2331-3.066-.64-4.346-1.2105l-1.791-7.5908c1.533 1.0866 3.111 1.8804 4.724 2.3765 1.617.5011 3.175.7095 4.683.6301.883-.0447 1.632-.1737 2.252-.387.621-.2084 1.112-.4763 1.484-.8087s.61-.7144.729-1.1461c.119-.4316.124-.893.005-1.3792-.159-.6648-.471-1.2502-.943-1.7513-.471-.5061-1.061-.9625-1.766-1.3743-.709-.4118-1.523-.7988-2.446-1.1659-.922-.3671-1.915-.7392-2.976-1.1163-2.694-.9724-4.833-2.2326-6.401-3.7656-1.577-1.533-2.629-3.4282-3.16-5.6955-.417-1.7712-.451-3.3092-.099-4.614.352-1.3098.992-2.4013 1.92-3.2844.933-.8831 2.089-1.5578 3.478-2.0242s2.902-.7392 4.559-.8285 3.086-.0596 4.396.0893c1.305.1438 2.54.4117 3.701.7987l1.677 7.0947c-.615-.3672-1.27-.6897-1.955-.9576-.684-.2679-1.384-.4812-2.084-.6449-.694-.1638-1.379-.2779-2.049-.3324-.669-.0596-1.289-.0794-1.87-.0497-.799.0447-1.503.1638-2.118.3672-.616.2034-1.112.4663-1.484.7888-.382.3225-.64.7045-.794 1.1362-.144.4316-.153.9128-.034 1.4338.134.5656.387 1.0716.774 1.5082.382.4366.873.8385 1.473 1.2155.6.3771 1.31.7392 2.128 1.0915.819.3522 1.732.7045 2.739 1.0667 1.384.506 2.644 1.0468 3.791 1.6372 1.146.5854 2.168 1.2651 3.066 2.0292z" fill="#fff" stroke="#fff" stroke-linejoin="round" stroke-opacity=".5"/><path d="m104.458 73.5183-7.07.377-6.5489-27.7335-8.8806.4713-1.4735-6.2264 24.876-1.3247 1.473 6.2264-8.925.4763z" fill="#fff" stroke="#fff" stroke-linejoin="round" stroke-opacity=".5"/><path d="m141.042 77.5418-9.297 7.0599c-.848.645-1.905 1.0419-3.116 1.1064l-57.2578 3.0561c-3.84.2034-7.7545-3.0263-8.7467-7.2186l-14.7499-62.4725c-.6748-2.8676.1935-5.4375 2.044-6.8416l9.2975-7.05987c-1.8506 1.39908-2.7188 3.97399-2.0441 6.84157l14.7499 62.4725c.9923 4.1873 4.9067 7.422 8.7467 7.2137l57.2584-3.0512c1.21-.0645 2.267-.4614 3.115-1.1064z" fill="url(#E)" stroke="#fff" stroke-linejoin="round" stroke-opacity=".5"/><path d="m443.974 304.37-14.243-3.341c.583.134.984.81.824 1.58l-4.226 19.895 14.244 3.349 4.225-19.896c.161-.77-.241-1.446-.824-1.58z" fill="url(#G)" stroke="#fff" stroke-linejoin="round" stroke-opacity=".5"/><path d="m429.39 301.009c.75-.101 1.366.676 1.171 1.6l-4.225 19.895-1.058 4.989c-.194.918.415 1.694 1.172 1.594.073-.007.147-.027.221-.054l9.067-3.247c.08-.027.154-.047.227-.054.837-.107 1.467.857 1.099 1.842l-24.262 63.837-.448.904c-.228.469-.583.71-.944.756-.677.088-1.353-.508-1.206-1.493l3.523-24.194c.127-.897-.476-1.587-1.186-1.493-.114.013-.227.046-.341.107l-5.418 2.658c-.114.054-.227.087-.341.101-.71.093-1.319-.596-1.192-1.494l2.21-15.401c.127-.891-.476-1.581-1.192-1.494-.087.014-.174.034-.261.067l-8.8 3.549c-.087.034-.174.061-.267.074-.268.033-.543-.04-.757-.228-.288-.241-.456-.636-.442-1.071l.616-27.141.268-11.732c.013-.629.388-1.199.911-1.386l31.62-11.431c.08-.027.154-.047.228-.054z" fill="url(#H)" stroke="#fff" stroke-linejoin="round" stroke-opacity=".5"/><path d="m472.601 319.357-40.513 96.194c-.422.992-1.205 1.567-2.002 1.675-.241.026-.476.02-.71-.034l-14.243-3.348c.234.053.475.067.716.033.797-.1 1.581-.676 1.996-1.674l40.52-96.187c.716-1.721-.114-3.489-1.453-3.804l14.236 3.341c1.346.315 2.177 2.09 1.453 3.804z" fill="#8000b9"/><path d="m472.601 319.357-40.513 96.194c-.422.992-1.205 1.567-2.002 1.675-.241.026-.476.02-.71-.034l-14.243-3.348c.234.053.475.067.716.033.797-.1 1.581-.676 1.996-1.674l40.52-96.187c.716-1.721-.114-3.489-1.453-3.804l14.236 3.341c1.346.315 2.177 2.09 1.453 3.804z" fill="url(#I)"/><g stroke="#fff" stroke-linejoin="round" stroke-opacity=".5"><path d="m472.601 319.357-40.513 96.194c-.422.992-1.205 1.567-2.002 1.675-.241.026-.476.02-.71-.034l-14.243-3.348c.234.053.475.067.716.033.797-.1 1.581-.676 1.996-1.674l40.52-96.187c.716-1.721-.114-3.489-1.453-3.804l14.236 3.341c1.346.315 2.177 2.09 1.453 3.804z"/><path d="m369.249 323.522c.14-.02.281-.02.428-.013l26.672 2.116-.616 27.14c-.007.429.154.824.442 1.072.214.181.489.261.757.227l9.067-3.616c.977-.16 1.58.529 1.453 1.42l-2.21 15.402c-.127.89.482 1.58 1.192 1.493.114-.013.228-.047.342-.1l5.417-2.659c.114-.06.228-.094.341-.107.71-.094 1.313.596 1.186 1.493l-3.523 24.195c-.147.991.536 1.587 1.206 1.493.355-.047.71-.288.944-.757l.449-.904 24.261-63.837c.375-.978-.255-1.949-1.098-1.842l-9.295 3.302c-.978.154-1.587-.623-1.393-1.54l1.058-4.989 29.451-10.226c.147-.053.295-.087.435-.107 1.721-.228 2.98 1.842 2.143 3.837l-40.513 96.195c-.422.997-1.206 1.567-2.002 1.674-.797.107-1.594-.255-2.07-1.125l-46.419-84.864c-.965-1.755.167-4.152 1.901-4.38z" fill="url(#J)"/><path d="m479.094 131.977-21.877 32.445-16.807.918 32.587-48.327z" fill="url(#L)"/><path d="m494.811 121.193-4.391 6.519-9.501-23.303c-.092-.222-.194-.439-.308-.644-.052-.091-.103-.177-.16-.263-.051-.085-.108-.171-.165-.251-.046-.068-.097-.131-.154-.193-.103-.137-.217-.268-.337-.394-.045-.051-.102-.108-.154-.154-.045-.046-.091-.085-.137-.125-.022-.023-.04-.04-.062-.063l10.345 8.326c.713.576 1.266 1.323 1.625 2.207z" fill="url(#M)"/><path d="m509.325 141.963-3.752 5.561-9.998 14.822-3.997.217-3.713 5.497-4.437 6.57 1.893 1.523c-5.263 5.189-11.457 8.024-18.694 8.417l-24.46 1.341c-1.238.062-2.401-.217-3.376-.81-.194-.12-.377-.245-.548-.388l-10.339-8.326s.034.022.051.034c.108.085.222.159.342.234.97.593 2.139.872 3.376.804l24.461-1.34c9.689-.531 17.508-5.43 23.735-14.492l15.205-22.549 3.33-4.939 1.049-1.557 3.764-5.572z" fill="url(#N)"/><path d="m541.051 173.09c-.194 1.312-.713 2.618-1.5 3.787s-1.814 2.156-2.988 2.874c-1.169.713-2.436 1.124-3.673 1.192l-38.969 2.133-8.6-6.923-1.893-1.523 3.524-.194 35.444-1.939c1.238-.068 2.504-.485 3.673-1.192 1.175-.719 2.201-1.711 2.989-2.874.787-1.175 1.305-2.475 1.499-3.787s.063-2.583-.387-3.678l-19.014-46.571c-.12-.297-.263-.576-.428-.838-.04-.069-.085-.137-.131-.206-.04-.057-.074-.114-.12-.165-.234-.325-.507-.616-.804-.878l10.351 8.332c.707.57 1.266 1.323 1.625 2.207l19.014 46.565c.451 1.1.582 2.372.388 3.678z" fill="url(#O)"/><path d="m530.17 160.966-19.014-46.571c-.12-.297-.263-.576-.428-.838-.04-.069-.086-.137-.131-.206-.04-.057-.074-.114-.12-.165-.234-.325-.507-.616-.804-.878-.017-.012-.034-.023-.046-.034-.199-.172-.416-.331-.644-.468-.975-.599-2.139-.878-3.376-.81-1.238.068-2.51.479-3.673 1.192-1.169.719-2.201 1.711-2.988 2.874l-4.135 6.131-4.391 6.519-9.501-23.303c-.092-.222-.194-.439-.308-.644-.052-.092-.103-.177-.16-.263-.051-.085-.108-.171-.166-.251-.045-.068-.096-.131-.153-.193-.103-.137-.217-.269-.337-.394-.046-.051-.103-.108-.154-.154-.046-.046-.091-.086-.137-.125-.023-.023-.04-.04-.063-.063-.034-.029-.074-.057-.108-.086-.182-.154-.382-.296-.587-.422-.97-.593-2.133-.872-3.376-.804-1.238.069-2.51.479-3.679 1.192-1.169.719-2.201 1.705-2.983 2.874l-41.472 61.518c-.787 1.17-1.306 2.476-1.5 3.787-.199 1.306-.062 2.578.388 3.679.382.946.993 1.739 1.78 2.326.017.012.034.023.051.035.108.085.222.159.342.234.97.593 2.139.872 3.376.804l24.46-1.341c9.69-.53 17.509-5.429 23.736-14.491l15.204-22.549 3.331-4.939 1.049-1.557 3.764-5.572 6.108 14.953 7.836 19.197-21.586 1.186-3.998.216-3.712 5.498-4.437 6.57 3.524-.194 35.444-1.939c1.238-.068 2.504-.485 3.673-1.192 1.175-.718 2.201-1.711 2.988-2.874.787-1.175 1.306-2.475 1.5-3.787s.063-2.583-.387-3.678zm-58.793-5.036c-4.117 5.885-8.132 8.167-13.875 8.475l-.285.017-16.807.918 32.587-48.327 6.097 14.964 3.176 7.802z" fill="url(#P)"/><path d="m64.5512 322 11.6936 9.507 7.1856 14.824-11.6936-9.507z" fill="#dfc05d"/><path d="m64.5513 322 7.1856 14.824-20.2374 27.733-4.8895.253-5.3747-11.06z" fill="#ffe183"/><path d="m71.7367 336.831 11.6936 9.507 7.1791 14.947-11.6936-9.508z" fill="#d7ad07"/><path d="m71.737 336.831 7.1791 14.946-8.5826 11.791-18.8339.989z" fill="#fc0"/><path d="m90.6094 361.285-.9248 1.267-19.3513 1.016 8.5826-11.791z" fill="#b49107"/><path d="m70.3332 363.568-14.7076 20.043-9.0159-18.795 4.8896-.259h.0064z" fill="#f78200"/><path d="m105.873 371.833-29.5054 40.178-11.6936-9.514 29.5056-40.178z" fill="#1f3042"/><path d="m94.1798 362.319-29.5056 40.178-9.0483-18.886 14.7075-20.043 19.3513-1.016z" fill="#34495f"/><path d="m46.6098 364.81 8.9772 18.846 9.0871 18.841-14.727 19.966-27.3001-56.392z" fill="#3ab982"/><path d="m64.674 402.497 11.6936 9.507-14.7269 19.966-11.6936-9.507z" fill="#1e7b53"/></g></svg>